<svg xmlns="http://www.w3.org/2000/svg" viewBox="0 0 225.06 225.07"><g id="Layer_2" data-name="Layer 2"><g id="Layer_1-2" data-name="Layer 1"><path d="M68.22,101.87h0a2.29,2.29,0,0,1,2.3,2.24v8.78h9v-8.78a2.31,2.31,0,0,1,2.3-2.24H90.5v-9H81.79a2.3,2.3,0,0,1-2.3-2.29V81.89h-9v8.72a2.3,2.3,0,0,1-2.3,2.29H59.5v9Z"/><path d="M143.28,101.88a2.3,2.3,0,0,1,2.29,2.21v8.81h9v-8.81a2.29,2.29,0,0,1,2.3-2.21h8.72v-9h-8.72a2.31,2.31,0,0,1-2.3-2.29V81.89h-9v8.72a2.3,2.3,0,0,1-2.3,2.29h-8.71v9Z"/><path d="M112.53,225.07A112.54,112.54,0,1,0,0,112.53,112.67,112.67,0,0,0,112.53,225.07ZM112.53,9A103.57,103.57,0,1,1,9,112.53,103.69,103.69,0,0,1,112.53,9Z"/><path d="M80.54,188.26a82.17,82.17,0,0,0,114.18-75.73h-9a73.22,73.22,0,1,1-146.44,0h-9a82.27,82.27,0,0,0,50.19,75.73Z"/></g></g></svg>